<?xml version="1.0" standalone="no"?>
<!DOCTYPE svg PUBLIC "-//W3C//DTD SVG 20010904//EN"
 "http://www.w3.org/TR/2001/REC-SVG-20010904/DTD/svg10.dtd">
<svg version="1.0" xmlns="http://www.w3.org/2000/svg"
 width="572.000000pt" height="116.000000pt" viewBox="0 0 572.000000 116.000000"
 preserveAspectRatio="xMidYMid meet">

<g transform="translate(0.000000,116.000000) scale(0.100000,-0.100000)"
fill="#000000" stroke="none">
<path d="M633 1069 c-47 -14 -73 -52 -73 -110 0 -44 -3 -50 -30 -64 -21 -11
-30 -23 -30 -41 0 -14 -7 -27 -17 -31 -29 -11 -153 -104 -153 -115 0 -2 12 -4
26 -4 28 -2 64 -30 64 -51 0 -10 5 -11 19 -4 14 8 23 5 40 -13 12 -13 19 -29
17 -37 -3 -8 8 -24 25 -37 20 -16 27 -19 23 -8 -8 20 -5 20 37 2 34 -15 91
-77 97 -106 11 -54 8 -70 -12 -70 -16 0 -17 3 -8 9 10 6 7 10 -11 15 -19 4
-24 11 -20 27 3 11 13 24 22 27 13 6 11 13 -17 42 l-33 35 16 -31 c9 -18 12
-40 8 -50 -6 -17 -8 -16 -14 6 -7 24 -7 24 -8 3 -1 -13 -5 -23 -10 -23 -12 0
-22 27 -16 43 3 6 -12 23 -31 37 -20 14 -45 33 -55 43 -10 9 -25 17 -32 17 -7
0 -20 9 -30 20 -20 23 -56 19 -96 -12 -25 -19 -51 -24 -51 -9 0 5 12 14 28 19
l27 10 -27 1 c-17 1 -31 -6 -38 -18 -5 -11 -25 -24 -44 -31 -24 -8 -40 -23
-60 -59 -35 -65 -34 -120 1 -180 37 -63 50 -76 56 -53 2 9 7 0 12 -23 9 -50
77 -125 115 -126 14 0 34 -4 45 -9 18 -8 18 -9 -5 -9 -23 -1 -22 -3 13 -27 41
-27 97 -49 166 -65 34 -7 51 -6 75 4 35 16 115 33 104 22 -4 -4 -31 -14 -60
-21 l-53 -13 60 6 c69 6 157 34 155 48 -2 12 27 23 61 24 25 1 75 41 50 41 -7
0 -9 5 -6 10 3 6 18 10 33 10 23 1 25 2 10 11 -29 16 -21 29 18 29 44 0 76 31
118 115 34 66 58 174 44 199 -6 10 -22 16 -46 16 -27 0 -45 8 -72 32 -19 18
-29 26 -22 18 17 -20 15 -30 -8 -30 -11 0 -20 7 -20 15 0 8 -3 15 -7 15 -5 0
-26 34 -48 75 -41 77 -41 110 1 62 28 -32 33 -57 7 -36 -14 12 -16 12 -11 -1
5 -15 58 -23 58 -8 0 23 -27 58 -61 79 -21 13 -39 31 -39 39 0 9 -11 31 -24
51 -13 19 -24 46 -25 60 -1 62 -19 140 -35 158 -34 37 -122 51 -193 30z m-36
-155 c-3 -3 -12 -4 -19 -1 -8 3 -5 6 6 6 11 1 17 -2 13 -5z m80 -26 c-4 -12
-1 -29 6 -37 11 -14 10 -14 -5 -2 -18 14 -24 42 -11 54 12 13 15 7 10 -15z
m90 -14 c-3 -3 -12 -4 -19 -1 -8 3 -5 6 6 6 11 1 17 -2 13 -5z m-57 -62 c-14
-9 -37 -30 -52 -45 -16 -16 -28 -24 -28 -17 0 24 23 52 53 65 44 19 57 18 27
-3z m124 -8 c3 -8 2 -12 -4 -9 -6 3 -10 10 -10 16 0 14 7 11 14 -7z m42 -51
c0 -10 -8 -23 -16 -30 -12 -10 -11 -11 10 -7 18 4 21 3 10 -4 -21 -13 -131
-21 -123 -9 4 6 -3 8 -15 5 -18 -5 -22 -2 -22 17 0 29 34 43 106 44 43 1 52
-2 50 -16z m-183 -23 c-3 -12 -8 -19 -11 -16 -5 6 5 36 12 36 2 0 2 -9 -1 -20z
m216 -119 c-13 -11 -26 -18 -28 -15 -7 7 21 34 36 34 10 0 8 -6 -8 -19z m31
-14 c0 -2 -13 -16 -30 -32 -16 -16 -30 -24 -30 -17 0 13 39 52 52 52 4 0 8 -1
8 -3z m-152 -43 c34 -9 26 -21 -13 -20 -19 1 -35 5 -35 10 0 4 -17 5 -37 2
-28 -5 -34 -4 -23 3 17 12 73 14 108 5z m-431 -49 c2 -40 2 -40 -9 -10 -6 17
-16 36 -22 44 -8 10 -6 13 9 10 16 -3 20 -13 22 -44z m153 -15 c11 -11 20 -29
20 -41 0 -18 -5 -15 -35 17 -19 20 -35 38 -35 40 0 12 33 1 50 -16z m217 14
c-3 -3 -12 -4 -19 -1 -8 3 -5 6 6 6 11 1 17 -2 13 -5z m-516 -40 c-9 -28 -9
-29 -10 -3 -1 14 2 29 6 32 11 12 13 2 4 -29z m336 -76 c-3 -8 -6 -5 -6 6 -1
11 2 17 5 13 3 -3 4 -12 1 -19z m-32 -8 c3 -5 1 -10 -4 -10 -6 0 -11 5 -11 10
0 6 2 10 4 10 3 0 8 -4 11 -10z m165 -30 c0 -13 -11 -13 -30 0 -12 8 -11 10 8
10 12 0 22 -4 22 -10z m-191 -70 l16 -24 -32 24 c-37 27 -41 33 -17 28 9 -2
24 -14 33 -28z m-111 -28 c2 -7 -11 -5 -36 6 -22 9 -38 20 -36 24 7 10 67 -15
72 -30z m160 -23 c-3 -20 -5 -19 -9 9 -3 20 -2 29 4 23 5 -5 7 -19 5 -32z
m232 -37 c62 -7 64 -8 43 -22 -13 -8 -23 -18 -23 -22 0 -5 -8 -16 -19 -27 -14
-14 -40 -20 -107 -25 -81 -6 -92 -5 -124 15 l-35 22 33 14 c19 7 37 24 43 39
9 26 11 26 67 20 31 -4 86 -10 122 -14z m-300 -57 c32 -18 26 -18 -30 -1 -32
11 -38 15 -20 15 14 0 36 -6 50 -14z m450 -15 c-8 -5 -26 -9 -40 -9 -23 0 -23
1 -5 9 11 5 29 9 40 9 17 1 17 -1 5 -9z m-132 -37 c-10 -2 -18 -8 -18 -12 0
-4 -15 -5 -32 -2 -32 4 -32 5 -8 12 14 4 36 7 50 7 16 0 19 -2 8 -5z m-228 -7
c0 -2 -7 -7 -16 -10 -8 -3 -12 -2 -9 4 6 10 25 14 25 6z m137 -12 c-3 -3 -12
-4 -19 -1 -8 3 -5 6 6 6 11 1 17 -2 13 -5z"/>
<path d="M338 633 c7 -3 16 -2 19 1 4 3 -2 6 -13 5 -11 0 -14 -3 -6 -6z"/>
</g>
</svg>
